<svg id="svg" version="1.1" width="400" height="385.9375" viewBox="0 0 400 385.9375" xmlns="http://www.w3.org/2000/svg" xmlns:xlink="http://www.w3.org/1999/xlink" ><g id="svgg"><path id="path0" d="M44.015 35.907 C 44.015 36.133,42.728 36.293,40.927 36.293 C 39.125 36.293,37.838 36.454,37.838 36.680 C 37.838 36.892,37.490 37.066,37.066 37.066 C 36.641 37.066,36.293 37.239,36.293 37.452 C 36.293 37.664,35.598 37.838,34.749 37.838 C 33.900 37.838,33.205 38.012,33.205 38.224 C 33.205 38.436,32.895 38.610,32.518 38.610 C 32.140 38.610,31.580 38.958,31.274 39.382 C 30.968 39.807,30.493 40.154,30.218 40.154 C 29.516 40.154,23.166 46.581,23.166 47.292 C 23.166 47.613,22.992 47.876,22.780 47.876 C 22.568 47.876,22.394 48.311,22.394 48.842 C 22.394 49.373,22.220 49.807,22.008 49.807 C 21.795 49.807,21.622 50.154,21.622 50.579 C 21.622 51.004,21.448 51.351,21.236 51.351 C 21.023 51.351,20.849 51.873,20.849 52.510 C 20.849 53.147,20.676 53.668,20.463 53.668 C 20.251 53.668,20.077 54.537,20.077 55.598 C 20.077 56.660,19.903 57.529,19.691 57.529 C 19.434 57.529,19.305 104.054,19.305 196.332 C 19.305 288.610,19.434 335.135,19.691 335.135 C 19.903 335.135,20.077 336.004,20.077 337.066 C 20.077 338.127,20.251 338.996,20.463 338.996 C 20.676 338.996,20.849 339.517,20.849 340.154 C 20.849 340.792,21.023 341.313,21.236 341.313 C 21.448 341.313,21.622 341.660,21.622 342.085 C 21.622 342.510,21.795 342.857,22.008 342.857 C 22.220 342.857,22.394 343.205,22.394 343.629 C 22.394 344.054,22.568 344.402,22.780 344.402 C 22.992 344.402,23.166 344.711,23.166 345.089 C 23.166 345.466,23.514 346.026,23.938 346.332 C 24.363 346.638,24.710 347.115,24.710 347.393 C 24.710 348.049,28.013 351.351,28.669 351.351 C 28.946 351.351,29.424 351.699,29.730 352.124 C 30.036 352.548,30.595 352.896,30.973 352.896 C 31.351 352.896,31.660 353.069,31.660 353.282 C 31.660 353.494,32.008 353.668,32.432 353.668 C 32.857 353.668,33.205 353.842,33.205 354.054 C 33.205 354.266,33.552 354.440,33.977 354.440 C 34.402 354.440,34.749 354.614,34.749 354.826 C 34.749 355.039,35.270 355.212,35.907 355.212 C 36.544 355.212,37.066 355.386,37.066 355.598 C 37.066 355.813,38.095 355.985,39.382 355.985 C 40.669 355.985,41.699 356.156,41.699 356.371 C 41.699 356.627,94.723 356.757,200.000 356.757 C 305.277 356.757,358.301 356.627,358.301 356.371 C 358.301 356.158,359.170 355.985,360.232 355.985 C 361.293 355.985,362.162 355.811,362.162 355.598 C 362.162 355.386,362.857 355.212,363.707 355.212 C 364.556 355.212,365.251 355.039,365.251 354.826 C 365.251 354.614,365.772 354.440,366.409 354.440 C 367.046 354.440,367.568 354.266,367.568 354.054 C 367.568 353.842,367.877 353.668,368.255 353.668 C 368.632 353.668,369.192 353.320,369.498 352.896 C 369.804 352.471,370.280 352.124,370.555 352.124 C 371.257 352.124,376.834 346.471,376.834 345.759 C 376.834 345.437,377.008 345.174,377.220 345.174 C 377.432 345.174,377.606 344.826,377.606 344.402 C 377.606 343.977,377.780 343.629,377.992 343.629 C 378.205 343.629,378.378 343.282,378.378 342.857 C 378.378 342.428,378.636 342.085,378.958 342.085 C 379.279 342.085,379.537 341.742,379.537 341.313 C 379.537 340.888,379.710 340.541,379.923 340.541 C 380.135 340.541,380.309 339.846,380.309 338.996 C 380.309 338.147,380.483 337.452,380.695 337.452 C 380.913 337.452,381.081 336.358,381.081 334.942 C 381.081 333.526,381.249 332.432,381.467 332.432 C 381.724 332.432,381.853 286.873,381.853 196.525 C 381.853 106.178,381.724 60.618,381.467 60.618 C 381.247 60.618,381.081 59.459,381.081 57.915 C 381.081 56.371,380.916 55.212,380.695 55.212 C 380.483 55.212,380.309 54.691,380.309 54.054 C 380.309 53.417,380.135 52.896,379.923 52.896 C 379.710 52.896,379.537 52.375,379.537 51.737 C 379.537 50.965,379.344 50.579,378.958 50.579 C 378.636 50.579,378.378 50.236,378.378 49.807 C 378.378 49.382,378.205 49.035,377.992 49.035 C 377.780 49.035,377.606 48.639,377.606 48.155 C 377.606 47.671,377.259 47.024,376.834 46.718 C 376.409 46.412,376.062 45.936,376.062 45.659 C 376.062 45.005,371.983 40.927,371.329 40.927 C 371.053 40.927,370.576 40.579,370.270 40.154 C 369.964 39.730,369.405 39.382,369.027 39.382 C 368.649 39.382,368.340 39.208,368.340 38.996 C 368.340 38.784,367.992 38.610,367.568 38.610 C 367.143 38.610,366.795 38.436,366.795 38.224 C 366.795 38.012,366.448 37.838,366.023 37.838 C 365.598 37.838,365.251 37.664,365.251 37.452 C 365.251 37.239,364.382 37.066,363.320 37.066 C 362.259 37.066,361.390 36.892,361.390 36.680 C 361.390 36.465,360.360 36.293,359.073 36.293 C 357.786 36.293,356.757 36.122,356.757 35.907 C 356.757 35.651,304.376 35.521,200.386 35.521 C 96.396 35.521,44.015 35.651,44.015 35.907 M361.872 40.797 C 364.695 41.644,369.884 45.629,369.884 46.950 C 369.884 47.247,370.026 47.490,370.199 47.490 C 370.693 47.490,372.201 50.553,372.201 51.558 C 372.201 52.056,372.375 52.571,372.587 52.703 C 372.843 52.861,372.973 99.803,372.973 192.278 C 372.973 284.753,372.843 331.695,372.587 331.853 C 372.375 331.985,372.201 332.413,372.201 332.805 C 372.201 333.469,370.957 336.172,370.077 337.419 C 368.212 340.065,365.272 342.185,361.390 343.686 C 359.263 344.508,41.502 344.461,38.996 343.638 C 34.887 342.289,31.021 339.088,29.398 335.690 C 28.897 334.642,28.332 333.482,28.143 333.113 C 27.647 332.146,27.689 51.351,28.185 51.351 C 28.398 51.351,28.571 50.950,28.571 50.459 C 28.571 49.968,28.919 49.193,29.344 48.738 C 29.768 48.282,30.116 47.732,30.116 47.516 C 30.116 46.105,35.033 42.215,38.417 40.949 C 40.763 40.071,358.954 39.922,361.872 40.797 M42.597 45.327 C 41.074 45.561,39.698 45.883,39.540 46.042 C 39.383 46.202,38.935 46.332,38.546 46.332 C 38.156 46.332,37.838 46.506,37.838 46.718 C 37.838 46.931,37.644 47.104,37.407 47.104 C 36.644 47.104,34.297 49.940,33.254 52.124 L 32.239 54.247 32.140 192.416 L 32.040 330.584 33.063 332.864 C 34.267 335.547,36.302 337.519,39.334 338.942 L 41.506 339.961 197.104 340.066 C 353.184 340.170,358.726 340.127,361.584 338.784 C 364.012 337.643,366.896 334.504,367.774 332.046 C 368.611 329.705,368.814 251.325,368.344 112.162 L 368.147 53.861 367.058 51.737 C 365.881 49.440,363.861 47.104,363.052 47.104 C 362.775 47.104,362.548 46.931,362.548 46.718 C 362.548 46.506,362.230 46.332,361.840 46.332 C 361.451 46.332,361.003 46.202,360.844 46.044 C 359.662 44.861,354.133 44.820,199.807 44.861 C 89.422 44.890,44.577 45.023,42.597 45.327 M76.013 88.413 C 76.358 88.595,78.118 89.294,79.923 89.968 C 81.728 90.642,83.552 91.338,83.977 91.515 C 84.402 91.692,85.878 92.269,87.259 92.798 C 93.389 95.149,104.351 99.389,107.525 100.637 C 109.435 101.388,111.780 102.264,112.738 102.584 C 113.695 102.903,114.644 103.321,114.846 103.513 C 115.047 103.704,115.440 103.861,115.718 103.861 C 115.997 103.861,116.961 104.194,117.861 104.601 C 118.762 105.008,120.193 105.565,121.042 105.839 C 123.887 106.757,123.939 106.873,123.933 112.319 C 123.926 118.560,123.899 118.648,121.749 119.283 C 120.785 119.567,119.328 120.123,118.511 120.518 C 117.694 120.913,116.841 121.236,116.616 121.236 C 116.390 121.236,115.904 121.406,115.535 121.614 C 115.167 121.823,111.390 123.309,107.143 124.917 C 99.403 127.848,91.987 130.687,90.541 131.274 C 90.116 131.446,88.292 132.141,86.486 132.819 C 84.681 133.496,82.814 134.208,82.336 134.400 C 80.092 135.302,79.642 135.474,78.378 135.907 C 76.952 136.397,75.641 136.920,74.265 137.549 C 72.737 138.247,72.587 137.703,72.587 131.453 C 72.587 124.617,72.396 124.985,76.653 123.592 C 79.639 122.615,84.534 120.887,85.521 120.461 C 85.946 120.278,86.988 119.908,87.838 119.638 C 88.687 119.368,89.547 119.009,89.749 118.840 C 89.951 118.671,90.481 118.533,90.927 118.533 C 91.373 118.533,91.903 118.389,92.104 118.214 C 92.306 118.038,93.253 117.660,94.208 117.372 C 95.164 117.085,96.120 116.738,96.332 116.602 C 96.544 116.466,97.500 116.120,98.456 115.833 C 99.411 115.545,100.358 115.166,100.560 114.991 C 100.762 114.815,101.316 114.672,101.792 114.672 C 102.268 114.672,102.765 114.498,102.896 114.286 C 103.027 114.073,103.548 113.900,104.054 113.900 C 104.560 113.900,105.081 113.726,105.212 113.514 C 105.344 113.301,105.870 113.127,106.381 113.127 C 107.050 113.127,107.249 112.964,107.089 112.548 C 106.967 112.230,106.449 111.969,105.938 111.969 C 105.427 111.969,104.620 111.768,104.145 111.523 C 102.291 110.564,101.915 110.425,101.186 110.425 C 100.771 110.425,100.324 110.251,100.193 110.039 C 100.062 109.826,99.565 109.653,99.089 109.653 C 98.613 109.653,98.059 109.509,97.857 109.334 C 97.655 109.158,96.708 108.779,95.753 108.492 C 94.797 108.204,93.842 107.858,93.629 107.722 C 93.417 107.586,92.461 107.240,91.506 106.952 C 90.550 106.665,89.603 106.286,89.402 106.110 C 89.200 105.935,88.670 105.792,88.224 105.792 C 87.778 105.792,87.248 105.648,87.046 105.473 C 86.845 105.297,85.898 104.918,84.942 104.631 C 83.986 104.343,83.031 103.998,82.819 103.863 C 82.606 103.729,81.129 103.207,79.537 102.705 C 77.944 102.203,76.476 101.649,76.274 101.475 C 76.072 101.301,75.588 101.158,75.199 101.158 C 72.851 101.158,72.587 100.408,72.587 93.735 L 72.587 87.559 73.986 87.821 C 74.755 87.966,75.667 88.232,76.013 88.413 M172.973 147.297 L 172.973 152.510 148.069 152.510 L 123.166 152.510 123.166 147.297 L 123.166 142.085 148.069 142.085 L 172.973 142.085 172.973 147.297 " stroke="none" fill="#030303" fill-rule="evenodd"></path><path id="path1" d="M43.438 41.620 C 40.601 41.725,38.163 42.471,40.656 42.471 C 41.230 42.471,41.699 42.645,41.699 42.857 C 41.699 43.069,41.277 43.243,40.761 43.243 C 40.245 43.243,39.563 43.504,39.244 43.822 C 38.926 44.141,38.392 44.402,38.058 44.402 C 37.725 44.402,37.452 44.575,37.452 44.788 C 37.452 45.000,37.191 45.174,36.873 45.174 C 36.554 45.174,36.293 45.347,36.293 45.560 C 36.293 45.772,36.100 45.946,35.863 45.946 C 34.762 45.946,32.027 49.762,30.466 53.475 C 30.287 53.900,30.280 69.450,30.450 88.031 L 30.759 121.815 30.829 89.189 C 30.905 54.118,30.916 53.925,32.913 50.522 C 34.057 48.571,36.762 45.946,37.628 45.946 C 37.956 45.946,38.224 45.772,38.224 45.560 C 38.224 45.347,38.537 45.174,38.919 45.174 C 39.301 45.174,39.779 45.025,39.981 44.843 C 42.094 42.938,360.618 42.959,360.618 44.865 C 360.618 45.035,360.881 45.174,361.202 45.174 C 362.870 45.174,367.023 49.116,368.316 51.927 C 369.331 54.132,369.765 63.326,369.929 86.100 C 370.005 96.728,370.042 95.919,370.310 77.799 C 370.489 65.642,370.464 57.189,370.247 56.371 C 370.050 55.627,369.888 54.465,369.886 53.787 C 369.885 53.110,369.710 52.448,369.498 52.317 C 369.286 52.185,369.112 51.741,369.112 51.329 C 369.112 50.916,368.938 50.579,368.726 50.579 C 368.514 50.579,368.340 50.349,368.340 50.068 C 368.340 49.365,364.193 45.174,363.497 45.174 C 363.188 45.174,362.934 45.000,362.934 44.788 C 362.934 44.575,362.661 44.402,362.328 44.402 C 361.994 44.402,361.460 44.141,361.142 43.822 C 360.823 43.504,360.141 43.243,359.625 43.243 C 359.109 43.243,358.687 43.069,358.687 42.857 C 358.687 42.645,359.156 42.471,359.730 42.471 C 360.429 42.471,360.644 42.343,360.384 42.083 C 360.036 41.735,52.458 41.286,43.438 41.620 M73.831 94.280 L 73.938 99.757 77.413 100.968 C 79.324 101.634,82.017 102.569,83.398 103.046 C 84.778 103.522,86.255 104.063,86.680 104.247 C 87.104 104.431,88.147 104.803,88.996 105.073 C 89.846 105.342,90.706 105.701,90.907 105.870 C 91.109 106.039,91.674 106.178,92.162 106.178 C 92.651 106.178,93.050 106.351,93.050 106.564 C 93.050 106.776,93.474 106.950,93.993 106.950 C 94.511 106.950,95.043 107.124,95.174 107.336 C 95.305 107.548,95.752 107.722,96.167 107.722 C 96.896 107.722,97.272 107.861,99.126 108.820 C 99.601 109.066,100.329 109.266,100.744 109.266 C 101.159 109.266,101.606 109.440,101.737 109.653 C 101.869 109.865,102.390 110.039,102.896 110.039 C 103.402 110.039,103.923 110.212,104.054 110.425 C 104.185 110.637,104.717 110.811,105.235 110.811 C 105.753 110.811,106.178 110.974,106.178 111.172 C 106.178 111.371,106.741 111.589,107.429 111.655 C 108.849 111.792,109.409 112.978,108.233 113.357 C 107.846 113.481,107.181 113.730,106.757 113.909 C 106.332 114.088,104.855 114.605,103.475 115.058 C 102.095 115.511,100.618 116.031,100.193 116.216 C 99.535 116.501,95.553 117.916,91.313 119.371 C 90.676 119.590,89.807 119.917,89.382 120.099 C 88.958 120.280,86.351 121.224,83.591 122.197 C 80.830 123.169,77.723 124.306,76.686 124.724 C 75.649 125.141,74.563 125.483,74.273 125.483 C 73.851 125.483,73.745 126.605,73.745 131.081 C 73.745 134.160,73.834 136.680,73.943 136.680 C 74.053 136.680,74.443 136.519,74.812 136.323 C 75.181 136.128,76.873 135.445,78.571 134.806 C 81.730 133.618,83.973 132.757,94.788 128.577 C 98.185 127.264,102.355 125.666,104.054 125.027 C 105.753 124.388,107.534 123.707,108.012 123.515 C 110.256 122.613,110.706 122.442,111.969 122.008 C 112.712 121.753,113.711 121.387,114.189 121.197 C 118.535 119.460,119.053 119.245,119.782 118.874 C 120.151 118.686,120.759 118.527,121.134 118.521 C 122.930 118.488,123.166 117.779,123.166 112.409 C 123.166 108.137,123.074 107.336,122.582 107.336 C 122.260 107.336,121.652 107.162,121.230 106.950 C 120.808 106.737,120.118 106.390,119.696 106.178 C 119.275 105.965,118.664 105.792,118.340 105.792 C 118.015 105.792,117.448 105.638,117.080 105.450 C 116.711 105.263,115.975 104.939,115.444 104.730 C 112.284 103.488,110.422 102.709,109.561 102.272 C 109.192 102.084,108.625 101.931,108.301 101.931 C 107.977 101.931,107.410 101.777,107.041 101.589 C 105.807 100.961,103.939 100.212,100.193 98.842 C 98.919 98.376,97.442 97.814,96.911 97.594 C 94.673 96.666,93.654 96.270,89.189 94.595 C 87.384 93.917,85.560 93.208,85.135 93.018 C 84.081 92.547,74.088 88.803,73.886 88.803 C 73.797 88.803,73.772 91.268,73.831 94.280 M124.131 143.078 C 123.897 143.177,123.793 144.841,123.867 147.296 L 123.988 151.351 148.107 151.351 L 172.227 151.351 172.117 147.201 L 172.008 143.050 148.263 142.983 C 135.203 142.945,124.344 142.988,124.131 143.078 " stroke="none" fill="#ffffff" fill-rule="evenodd"></path><path id="path2" d="M41.120 45.174 L 39.961 45.468 41.120 45.492 C 41.757 45.505,42.973 45.372,43.822 45.196 L 45.367 44.876 43.822 44.878 C 42.973 44.878,41.757 45.012,41.120 45.174 M356.564 45.196 C 357.413 45.372,358.629 45.505,359.266 45.492 L 360.425 45.468 359.266 45.174 C 358.629 45.012,357.413 44.878,356.564 44.878 L 355.019 44.876 356.564 45.196 M35.036 48.724 C 33.645 50.445,32.806 51.842,32.836 52.388 C 32.845 52.561,33.175 52.095,33.569 51.351 C 33.962 50.608,34.838 49.421,35.515 48.714 C 36.192 48.007,36.664 47.346,36.563 47.245 C 36.462 47.144,35.775 47.810,35.036 48.724 M366.023 49.659 C 366.023 49.872,366.278 50.383,366.590 50.795 C 366.902 51.207,367.157 51.371,367.157 51.158 C 367.157 50.946,366.902 50.435,366.590 50.023 C 366.278 49.611,366.023 49.447,366.023 49.659 M32.287 53.490 C 32.155 53.835,32.066 54.581,32.091 55.147 C 32.124 55.919,32.211 55.790,32.436 54.633 C 32.756 52.992,32.686 52.452,32.287 53.490 M368.245 103.127 C 368.299 130.394,368.389 156.612,368.445 161.390 C 368.502 166.168,368.578 144.537,368.615 113.320 C 368.651 82.104,368.561 55.886,368.414 55.058 C 368.267 54.230,368.191 75.861,368.245 103.127 M31.563 192.702 C 31.368 283.424,31.401 328.747,31.662 330.125 C 32.403 334.033,35.208 337.572,38.961 339.334 L 41.120 340.347 200.229 340.347 L 359.338 340.347 361.895 339.063 C 364.835 337.585,366.490 335.873,367.915 332.836 L 368.919 330.695 368.929 282.432 L 368.939 234.170 368.736 282.046 C 368.504 336.771,368.801 332.383,365.071 336.114 C 362.465 338.721,360.780 339.443,356.372 339.839 C 354.354 340.021,282.683 340.123,197.104 340.066 L 41.506 339.961 39.362 338.954 C 36.513 337.617,34.539 335.825,33.276 333.432 L 32.239 331.467 32.046 194.402 L 31.853 57.336 31.563 192.702 M72.587 93.778 C 72.587 100.393,72.856 101.160,75.179 101.158 C 75.589 101.157,75.321 100.883,74.517 100.482 L 73.166 99.807 73.058 94.211 C 72.964 89.288,73.030 88.558,73.615 88.130 C 74.222 87.686,74.207 87.645,73.433 87.645 C 72.598 87.645,72.587 87.724,72.587 93.778 M79.103 89.997 C 80.670 90.631,82.017 91.084,82.098 91.004 C 82.273 90.829,77.173 88.794,76.631 88.823 C 76.424 88.834,77.537 89.362,79.103 89.997 M85.662 92.486 C 86.377 92.796,87.072 93.044,87.206 93.037 C 87.709 93.008,85.499 91.919,84.942 91.921 C 84.624 91.921,84.948 92.176,85.662 92.486 M88.996 93.795 C 89.846 94.203,90.801 94.543,91.120 94.551 C 91.781 94.566,89.806 93.655,88.392 93.293 C 87.875 93.160,88.147 93.386,88.996 93.795 M111.969 102.703 C 112.288 102.909,112.809 103.077,113.127 103.077 C 113.642 103.077,113.642 103.035,113.127 102.703 C 112.809 102.497,112.288 102.328,111.969 102.328 C 111.454 102.328,111.454 102.370,111.969 102.703 M122.490 106.785 L 123.552 107.361 123.636 112.657 L 123.721 117.954 123.841 112.785 C 123.968 107.345,123.643 106.153,122.044 106.193 C 121.666 106.203,121.839 106.431,122.490 106.785 M100.579 115.058 C 100.297 115.515,100.675 115.515,101.737 115.058 C 102.482 114.738,102.479 114.725,101.664 114.699 C 101.198 114.684,100.710 114.846,100.579 115.058 M89.768 118.919 C 89.486 119.376,89.864 119.376,90.927 118.919 C 91.671 118.599,91.668 118.586,90.853 118.560 C 90.388 118.545,89.900 118.707,89.768 118.919 M83.205 121.234 C 82.780 121.417,81.603 121.865,80.590 122.229 C 79.576 122.593,78.809 122.953,78.884 123.028 C 79.016 123.160,84.582 121.278,84.910 120.990 C 85.213 120.725,83.977 120.902,83.205 121.234 M75.559 123.944 C 72.490 125.111,72.587 124.864,72.587 131.527 C 72.587 137.597,72.915 138.822,74.198 137.539 C 74.476 137.261,74.379 137.156,73.883 137.198 C 73.222 137.254,73.157 136.853,73.055 132.046 C 72.923 125.859,73.025 125.315,74.416 124.796 C 77.634 123.595,78.514 123.207,77.992 123.223 C 77.674 123.232,76.579 123.557,75.559 123.944 M102.797 126.161 C 101.468 126.705,100.447 127.217,100.527 127.297 C 100.608 127.378,101.956 126.924,103.522 126.290 C 105.089 125.656,106.110 125.144,105.792 125.154 C 105.473 125.163,104.125 125.617,102.797 126.161 M94.015 129.553 C 92.317 130.267,91.110 130.860,91.335 130.870 C 91.559 130.880,93.210 130.287,95.003 129.553 C 96.796 128.819,98.002 128.227,97.683 128.236 C 97.365 128.246,95.714 128.839,94.015 129.553 M86.680 132.411 C 85.830 132.813,85.309 133.143,85.521 133.145 C 86.048 133.148,89.095 131.722,88.610 131.699 C 88.398 131.689,87.529 132.009,86.680 132.411 M172.726 147.490 C 172.726 149.508,172.791 150.333,172.871 149.324 C 172.950 148.316,172.950 146.665,172.871 145.656 C 172.791 144.648,172.726 145.473,172.726 147.490 M372.676 304.247 C 372.573 331.242,372.529 331.952,370.796 335.168 C 368.720 339.019,365.307 341.840,361.185 343.111 C 358.962 343.797,353.257 343.822,201.081 343.822 C 114.292 343.822,43.414 343.955,43.576 344.117 C 44.165 344.705,360.294 344.268,361.583 343.677 C 365.471 341.893,366.378 341.332,367.949 339.736 C 370.363 337.284,372.201 334.312,372.201 332.859 C 372.201 332.497,372.376 332.026,372.590 331.812 C 372.845 331.557,372.943 322.359,372.876 304.997 L 372.774 278.571 372.676 304.247 M27.886 315.932 C 27.838 325.024,27.954 332.744,28.143 333.113 C 28.332 333.482,28.897 334.642,29.398 335.690 C 31.410 339.902,36.080 343.233,41.023 343.984 C 43.660 344.385,43.288 343.888,40.563 343.370 C 35.830 342.471,31.672 339.297,29.522 334.942 L 28.378 332.625 28.175 316.023 L 27.972 299.421 27.886 315.932 " stroke="none" fill="#4d4c4b" fill-rule="evenodd"></path><path id="path3" d="M120.528 40.444 C 164.203 40.498,235.786 40.498,279.602 40.444 C 323.417 40.390,287.683 40.346,200.193 40.346 C 112.703 40.346,76.854 40.390,120.528 40.444 M121.557 44.691 C 164.947 44.745,235.835 44.745,279.086 44.691 C 322.336 44.637,286.834 44.593,200.193 44.593 C 113.552 44.593,78.166 44.637,121.557 44.691 M38.610 45.753 C 38.079 46.056,37.819 46.305,38.031 46.305 C 38.243 46.305,38.851 46.056,39.382 45.753 C 39.913 45.449,40.174 45.201,39.961 45.201 C 39.749 45.201,39.141 45.449,38.610 45.753 M368.212 54.247 C 368.505 56.156,368.728 56.481,368.720 54.987 C 368.717 54.368,368.548 53.600,368.345 53.282 C 368.093 52.887,368.051 53.195,368.212 54.247 M31.765 55.985 C 31.765 56.940,31.841 57.331,31.933 56.853 C 32.025 56.375,32.025 55.594,31.933 55.116 C 31.841 54.638,31.765 55.029,31.765 55.985 M31.220 136.776 C 31.190 180.150,31.050 227.365,30.909 241.699 C 30.769 256.033,30.619 262.794,30.578 256.723 C 30.416 233.111,30.075 224.710,29.282 224.710 C 28.362 224.710,28.493 232.165,28.207 163.320 C 27.959 103.775,27.953 104.515,27.926 198.842 C 27.911 251.824,28.007 303.600,28.139 313.900 L 28.378 332.625 29.522 334.942 C 31.672 339.296,35.669 342.350,40.627 343.429 C 45.007 344.381,358.557 344.063,361.390 343.103 C 365.433 341.734,368.777 338.913,370.796 335.168 C 372.740 331.561,372.630 338.889,372.757 205.405 C 372.855 101.913,372.823 91.841,372.567 145.753 C 372.263 209.713,371.998 224.120,371.113 224.667 C 370.807 224.856,370.581 228.830,370.376 237.663 L 370.079 250.386 369.782 241.506 C 369.619 236.622,369.332 193.272,369.145 145.174 L 368.804 57.722 368.861 194.208 L 368.919 330.695 367.915 332.836 C 366.490 335.873,364.835 337.585,361.895 339.063 L 359.338 340.347 200.229 340.347 L 41.120 340.347 38.935 339.323 C 36.239 338.058,33.951 335.753,32.540 332.880 L 31.467 330.695 31.625 194.305 C 31.711 119.291,31.668 57.915,31.528 57.915 C 31.388 57.915,31.250 93.403,31.220 136.776 M73.143 88.532 C 73.037 88.808,73.004 91.457,73.070 94.420 L 73.190 99.807 73.274 94.140 C 73.350 89.110,73.435 88.454,74.035 88.297 C 74.668 88.132,74.667 88.118,74.023 88.076 C 73.644 88.051,73.248 88.256,73.143 88.532 M123.310 112.934 C 123.311 115.270,123.375 116.176,123.452 114.947 C 123.529 113.718,123.528 111.807,123.450 110.700 C 123.372 109.593,123.310 110.598,123.310 112.934 M107.722 112.456 C 107.722 112.794,107.418 113.150,107.046 113.247 C 106.413 113.413,106.414 113.427,107.058 113.469 C 107.757 113.514,108.403 112.522,107.963 112.081 C 107.830 111.949,107.722 112.117,107.722 112.456 M73.057 131.348 C 73.010 134.546,73.130 137.117,73.334 137.243 C 73.706 137.473,76.983 136.314,76.716 136.047 C 76.634 135.965,75.928 136.164,75.147 136.490 C 73.348 137.242,73.396 137.384,73.255 130.888 L 73.142 125.676 73.057 131.348 M84.749 132.846 C 83.900 133.255,83.639 133.481,84.170 133.349 C 85.263 133.077,87.270 132.070,86.680 132.090 C 86.467 132.098,85.598 132.438,84.749 132.846 M135.811 142.374 C 142.447 142.434,153.306 142.434,159.942 142.374 C 166.578 142.315,161.149 142.267,147.876 142.267 C 134.604 142.267,129.175 142.315,135.811 142.374 M123.244 147.124 C 123.191 150.171,123.313 151.730,123.629 152.046 C 123.982 152.399,129.827 152.488,148.050 152.418 L 172.008 152.325 147.876 152.128 L 123.745 151.931 123.533 147.297 L 123.321 142.664 123.244 147.124 " stroke="none" fill="#757473" fill-rule="evenodd"></path><path id="path4" d="M39.961 40.927 C 39.830 41.139,39.315 41.313,38.817 41.313 C 35.361 41.313,29.876 46.892,28.213 52.098 C 27.140 55.459,28.232 224.710,29.327 224.710 C 30.069 224.710,30.419 233.682,30.578 256.723 C 30.619 262.794,30.769 256.033,30.909 241.699 C 31.050 227.365,31.195 180.367,31.231 137.259 C 31.310 44.791,30.922 51.159,36.743 46.864 C 37.428 46.359,37.773 45.946,37.510 45.946 C 36.745 45.946,33.986 48.692,32.913 50.522 C 30.916 53.925,30.905 54.118,30.829 89.189 L 30.759 121.815 30.450 88.031 C 30.280 69.450,30.287 53.900,30.466 53.475 C 32.027 49.762,34.762 45.946,35.863 45.946 C 36.100 45.946,36.293 45.772,36.293 45.560 C 36.293 45.347,36.554 45.174,36.873 45.174 C 37.191 45.174,37.452 45.000,37.452 44.788 C 37.452 44.575,37.725 44.402,38.058 44.402 C 38.392 44.402,38.926 44.141,39.244 43.822 C 39.563 43.504,40.245 43.243,40.761 43.243 C 41.277 43.243,41.699 43.069,41.699 42.857 C 41.699 42.645,41.230 42.471,40.656 42.471 C 39.960 42.471,39.742 42.343,40.001 42.084 C 40.539 41.546,359.845 41.544,360.384 42.083 C 360.644 42.343,360.429 42.471,359.730 42.471 C 359.156 42.471,358.687 42.645,358.687 42.857 C 358.687 43.069,359.109 43.243,359.625 43.243 C 360.141 43.243,360.823 43.504,361.142 43.822 C 361.460 44.141,361.994 44.402,362.328 44.402 C 362.661 44.402,362.934 44.575,362.934 44.788 C 362.934 45.000,363.188 45.174,363.497 45.174 C 364.193 45.174,368.340 49.365,368.340 50.068 C 368.340 50.349,368.514 50.579,368.726 50.579 C 368.938 50.579,369.112 50.916,369.112 51.329 C 369.112 51.741,369.286 52.185,369.498 52.317 C 369.710 52.448,369.885 53.110,369.886 53.787 C 369.888 54.465,370.050 55.627,370.247 56.371 C 370.464 57.189,370.489 65.642,370.310 77.799 C 370.042 95.919,370.005 96.728,369.929 86.100 C 369.764 63.208,369.333 54.132,368.305 51.927 C 367.488 50.175,364.544 46.524,364.215 46.854 C 364.139 46.929,364.710 47.668,365.483 48.495 C 366.256 49.323,367.340 50.956,367.891 52.124 L 368.895 54.247 369.198 143.629 C 369.365 192.790,369.631 236.921,369.789 241.699 L 370.077 250.386 370.375 237.663 C 370.584 228.719,370.805 224.857,371.120 224.663 C 372.186 224.004,373.537 58.940,372.519 53.668 C 371.352 47.620,367.086 42.932,360.976 40.981 C 359.147 40.397,40.322 40.343,39.961 40.927 M44.788 44.015 C 43.832 44.164,113.764 44.288,200.193 44.292 C 286.622 44.295,356.467 44.163,355.405 43.998 C 353.011 43.625,47.188 43.642,44.788 44.015 M39.976 44.765 C 39.842 44.981,40.339 45.037,41.208 44.903 C 43.146 44.604,43.302 44.402,41.593 44.402 C 40.827 44.402,40.099 44.565,39.976 44.765 M357.561 44.540 C 357.970 44.891,360.618 45.085,360.618 44.763 C 360.618 44.564,359.894 44.402,359.009 44.402 C 358.124 44.402,357.473 44.464,357.561 44.540 M361.036 45.318 C 361.560 45.786,363.706 46.688,363.704 46.438 C 363.700 46.118,361.868 45.174,361.249 45.174 C 361.043 45.174,360.948 45.239,361.036 45.318 M73.359 94.208 C 73.359 97.394,73.489 100.000,73.649 100.001 C 73.808 100.001,73.886 97.482,73.822 94.402 C 73.758 91.323,73.786 88.803,73.885 88.803 C 73.984 88.803,75.669 89.415,77.629 90.163 C 79.589 90.911,81.279 91.436,81.385 91.330 C 81.491 91.225,81.249 91.030,80.847 90.899 C 80.445 90.767,78.813 90.154,77.220 89.536 C 73.067 87.925,73.359 87.571,73.359 94.208 M82.625 91.983 C 84.187 92.671,85.706 93.274,89.189 94.588 C 90.994 95.269,92.905 96.007,93.436 96.227 C 93.967 96.448,94.792 96.779,95.270 96.963 C 95.748 97.147,96.530 97.454,97.008 97.646 C 97.486 97.837,98.919 98.376,100.193 98.842 C 101.467 99.308,102.944 99.869,103.475 100.089 C 104.006 100.309,104.875 100.660,105.405 100.869 C 105.936 101.078,106.672 101.402,107.041 101.589 C 107.410 101.777,108.018 101.922,108.392 101.912 C 109.102 101.893,106.705 100.898,96.332 96.906 C 92.934 95.598,88.417 93.848,86.293 93.015 C 82.821 91.655,80.215 90.921,82.625 91.983 M76.834 101.158 C 77.153 101.364,77.674 101.533,77.992 101.533 C 78.507 101.533,78.507 101.491,77.992 101.158 C 77.674 100.952,77.153 100.784,76.834 100.784 C 76.319 100.784,76.319 100.826,76.834 101.158 M79.151 101.931 C 79.469 102.136,79.990 102.305,80.309 102.305 C 80.824 102.305,80.824 102.263,80.309 101.931 C 79.990 101.725,79.469 101.556,79.151 101.556 C 78.636 101.556,78.636 101.598,79.151 101.931 M111.364 103.047 C 111.510 103.283,111.881 103.475,112.190 103.475 C 112.499 103.475,113.053 103.628,113.422 103.816 C 113.791 104.004,114.614 104.371,115.251 104.633 C 115.888 104.895,116.711 105.263,117.080 105.450 C 117.448 105.638,118.057 105.784,118.431 105.775 C 118.806 105.766,117.657 105.162,115.880 104.434 C 111.656 102.705,111.035 102.514,111.364 103.047 M83.398 103.475 C 83.716 103.681,84.237 103.849,84.556 103.849 C 85.071 103.849,85.071 103.808,84.556 103.475 C 84.237 103.269,83.716 103.101,83.398 103.101 C 82.883 103.101,82.883 103.142,83.398 103.475 M87.645 105.019 C 87.963 105.225,88.485 105.394,88.803 105.394 C 89.318 105.394,89.318 105.352,88.803 105.019 C 88.485 104.813,87.963 104.645,87.645 104.645 C 87.130 104.645,87.130 104.687,87.645 105.019 M102.896 110.425 C 103.958 110.881,104.336 110.881,104.054 110.425 C 103.923 110.212,103.435 110.051,102.969 110.066 C 102.154 110.092,102.151 110.105,102.896 110.425 M107.468 111.837 C 107.951 111.974,108.116 112.283,107.981 112.799 C 107.857 113.273,107.952 113.501,108.235 113.407 C 109.133 113.107,108.733 111.779,107.722 111.705 C 107.094 111.658,107.006 111.704,107.468 111.837 M103.475 114.672 C 102.960 115.005,102.960 115.046,103.475 115.046 C 103.793 115.046,104.315 114.878,104.633 114.672 C 105.148 114.339,105.148 114.298,104.633 114.298 C 104.315 114.298,103.793 114.466,103.475 114.672 M101.158 115.444 C 100.644 115.777,100.644 115.818,101.158 115.818 C 101.477 115.818,101.998 115.650,102.317 115.444 C 102.831 115.111,102.831 115.070,102.317 115.070 C 101.998 115.070,101.477 115.238,101.158 115.444 M95.946 117.402 C 95.097 117.811,94.836 118.037,95.367 117.905 C 96.820 117.544,98.730 116.666,98.069 116.662 C 97.751 116.661,96.795 116.994,95.946 117.402 M122.616 117.810 C 122.207 118.208,122.055 118.533,122.279 118.533 C 122.725 118.533,123.754 117.437,123.511 117.222 C 123.427 117.148,123.025 117.413,122.616 117.810 M92.664 118.533 C 92.149 118.866,92.149 118.907,92.664 118.907 C 92.983 118.907,93.504 118.739,93.822 118.533 C 94.337 118.200,94.337 118.159,93.822 118.159 C 93.504 118.159,92.983 118.327,92.664 118.533 M119.691 118.897 C 118.611 119.491,114.644 121.089,111.969 122.008 C 110.418 122.540,109.473 122.897,108.108 123.464 C 107.577 123.684,105.753 124.388,104.054 125.027 C 102.355 125.666,98.272 127.233,94.981 128.508 C 91.689 129.783,87.551 131.379,85.785 132.054 C 84.018 132.729,82.645 133.352,82.732 133.440 C 82.819 133.527,83.743 133.265,84.785 132.857 C 85.827 132.450,88.591 131.390,90.927 130.501 C 93.263 129.612,95.521 128.744,95.946 128.571 C 96.694 128.267,101.111 126.578,109.073 123.551 C 117.538 120.333,121.777 118.570,121.042 118.574 C 120.618 118.576,120.010 118.722,119.691 118.897 M90.347 119.305 C 89.833 119.638,89.833 119.679,90.347 119.679 C 90.666 119.679,91.187 119.511,91.506 119.305 C 92.021 118.972,92.021 118.931,91.506 118.931 C 91.187 118.931,90.666 119.099,90.347 119.305 M86.100 120.813 C 85.627 121.080,82.820 122.085,79.964 123.010 C 79.668 123.106,79.514 123.272,79.622 123.380 C 79.809 123.567,87.209 121.028,87.591 120.646 C 87.902 120.335,86.712 120.468,86.100 120.813 M75.869 124.490 L 73.552 125.352 73.445 130.889 C 73.385 133.934,73.472 136.562,73.638 136.728 C 73.803 136.894,73.886 134.431,73.822 131.256 C 73.728 126.548,73.805 125.483,74.239 125.483 C 74.532 125.483,75.801 125.056,77.058 124.534 C 79.901 123.353,79.010 123.320,75.869 124.490 M79.730 134.363 C 78.880 134.756,78.446 135.078,78.764 135.078 C 79.083 135.078,80.039 134.756,80.888 134.363 C 81.737 133.970,82.172 133.648,81.853 133.648 C 81.535 133.648,80.579 133.970,79.730 134.363 M123.552 142.758 C 123.552 142.919,134.455 143.050,147.780 143.050 L 172.008 143.050 172.117 147.201 L 172.227 151.351 148.096 151.351 L 123.965 151.351 123.833 147.394 L 123.701 143.436 123.723 147.683 L 123.745 151.931 148.069 151.931 L 172.394 151.931 172.394 147.297 L 172.394 142.664 147.973 142.565 C 134.542 142.510,123.552 142.597,123.552 142.758 " stroke="none" fill="#b7cad1" fill-rule="evenodd"></path></g></svg>